# xmcd CD database file
#
# Track frame offsets:
#	150
#	57557
#	86149
#	132712
#	171576
#	205817
#
# Disc length: 3126 seconds
#
# Revision: 1
# Processed by: cddbd v1.5.1PL2 Copyright (c) Steve Scherf et al.
# Submitted via: CDex 1.51
#
DISCID=5f0c3406
DTITLE=Mata Mandir Singh and friends - The Yoga of Sound - Overcoming fear
DYEAR=2002
DGENRE=New Age
TTITLE0=Mul Mantra
TTITLE1=Gobinde Mukande
TTITLE2=Chatr Chakra Varti
TTITLE3=Sa Ta Na Ma Celebration
TTITLE4=Adi Shakti
TTITLE5=Guru Ram Das Chant
EXTD=YEAR: 2002
EXTT0=
EXTT1=
EXTT2=
EXTT3=
EXTT4=
EXTT5=
PLAYORDER=
